# xmcd
# 
# Track frame offsets:
#     150
#     13287
#     26010
#     40730
#     54642
#     72412
#     85270
#     99175
#     115337
#     130085
#     149835
#     167222
#     185202
#     204160
#     218190
#     236537
#     257025
#     273215
# 
# Disc length: 4049
# 
# Revision: 3
# Processed by: cddbd v1.5.2PL0 Copyright (c) Steve Scherf et al.
# Submitted via: BonkEnc v1.0.5
# 
DISCID=0c0fcf12
DTITLE=憂歌団 - GOLDEN☆BEST〜Complete Best 1974-1997〜 Disc 1
DYEAR=2002
DGENRE=New Age
TTITLE0=嫌んなった
TTITLE1=キィ・トゥ・ザ・ハイウェイ
TTITLE2=おそうじオバチャン
TTITLE3=はんか街のはんぱ女
TTITLE4=サマータイム
TTITLE5=イフ・アイ・ディドゥント・ラブ・ユー
TTITLE6=10$の恋
TTITLE7=パチンコ〜ランラン・ブルース
TTITLE8=当れ!宝くじ
TTITLE9=ALL OF ME
TTITLE10=スティーリン
TTITLE11=渚のボード・ウォーク
TTITLE12=嘘は罪
TTITLE13=Boy,My Boy
TTITLE14=エン歌
TTITLE15=ア・イ・シ・テ・ル
TTITLE16=Midnight Drinker
TTITLE17=シカゴ バウンド
EXTD=YEAR: 2002
EXTT0=
EXTT1=
EXTT2=
EXTT3=
EXTT4=
EXTT5=
EXTT6=
EXTT7=
EXTT8=
EXTT9=
EXTT10=
EXTT11=
EXTT12=
EXTT13=
EXTT14=
EXTT15=
EXTT16=
EXTT17=
PLAYORDER=
